# xmcd
#
# Track frame offsets:
#	150
#	14829
#	28831
#	42539
#	55903
#	66906
#	86615
#	99527
#	114006
#	124586
#	141903
#	154579
#	171477
#	181374
#	192343
#	203436
#	213840
#	225940
#	241204
#	253899
#	268675
#	282517
#
# Disc length: 3886 seconds
# Revision: 0
# Processed by: cddbd v1.5.2PL0 Copyright (c) Steve Scherf et al.
# Submitted via: dBpowerAMP V12.0
#
DISCID=3e0f2c16
DTITLE=Bluegrass Patriots - Through The Years
DYEAR=2017
DGENRE=Country
TTITLE0=When We Were Barefoot Kids So Long Ago
TTITLE1=The Last Waltz
TTITLE2=Wave Goodbye
TTITLE3=Bound In Sorrow
TTITLE4=Longing For The Ozarks
TTITLE5=When You And I Were Young Maggie
TTITLE6=Mean Woman
TTITLE7=More And More
TTITLE8=Sparkling Brown Eyes
TTITLE9=Put My Little Shoes Away
TTITLE10=Big Sandy River
TTITLE11=Wild Wild Rose
TTITLE12=Logging Man
TTITLE13=You're Running Wild
TTITLE14=Falling In Love
TTITLE15=Trail Of The Lonesome Pine
TTITLE16=Tom Horn
TTITLE17=Springtime In The Rockies
TTITLE18=Dreams About The Hills Of Home
TTITLE19=Someone New
TTITLE20=Streets Of Baltimore
TTITLE21=The Captain
EXTD=
EXTT0=
EXTT1=
EXTT2=
EXTT3=
EXTT4=
EXTT5=
EXTT6=
EXTT7=
EXTT8=
EXTT9=
EXTT10=
EXTT11=
EXTT12=
EXTT13=
EXTT14=
EXTT15=
EXTT16=
EXTT17=
EXTT18=
EXTT19=
EXTT20=
EXTT21=
PLAYORDER=
